<svg xmlns="http://www.w3.org/2000/svg" width="400" height="400"><g fill-rule="evenodd"><path d="M186.759 1.998c-.307.163-2.179.408-4.159.544-6.038.415-13.951 1.389-17.8 2.191-15.912 3.316-25.241 5.844-32.6 8.835-.44.179-1.25.511-1.8.738a51.7 51.7 0 0 1-2.4.894c-1.636.562-2.487.896-4.4 1.726-.77.335-2.21.924-3.2 1.31-2.228.869-14.681 7.092-17.4 8.696a355.537 355.537 0 0 1-6.01 3.467c-2.857 1.618-15.226 10.24-17.397 12.126-.554.481-2.084 1.685-3.4 2.674-1.316.989-2.483 1.894-2.593 2.011-.11.117-2.54 2.303-5.4 4.857-7.249 6.475-16.047 15.579-19.879 20.57-.491.64-1.177 1.433-1.526 1.763-.348.33-1.071 1.23-1.607 2-.535.77-1.367 1.85-1.848 2.4-.947 1.083-4.251 5.622-7.57 10.4-2.365 3.405-5.701 8.745-7.495 12a224.41 224.41 0 0 1-2.146 3.8c-1.659 2.848-6.017 11.883-7.909 16.4-1.014 2.42-2 4.76-2.191 5.2-.192.44-.565 1.43-.829 2.2-.264.77-.634 1.76-.821 2.2-.421.989-3.173 9.41-4.314 13.2-6.6 21.93-9.291 53.849-6.458 76.6 1.976 15.863 6.52 36.372 9.238 41.695.195.382.355.969.355 1.305 0 .336.166.923.368 1.305.202.382.76 1.775 1.239 3.095 2.9 7.99 8.506 20.1 13.333 28.8 3.265 5.886 11.509 18.079 16.004 23.671C53.01 331.7 61.292 340.434 70 347.938c2.97 2.56 5.652 4.895 5.961 5.19.519.496 2.884 2.323 6.401 4.943C85.863 360.68 96.781 368 97.17 368c.236 0 .43.136.43.302 0 .167.585.557 1.3.868.715.311 1.39.671 1.5.8.621.729 20.306 10.515 23.4 11.634.44.159 1.34.517 2 .796 4.954 2.093 12.052 4.463 21.427 7.155 22.776 6.539 50.313 8.76 74.573 6.014 6.397-.724 19.835-3.047 24.2-4.183a760.854 760.854 0 0 0 9.8-2.648c2.469-.688 14.652-4.742 16-5.325.66-.285 1.83-.794 2.6-1.132.77-.337 2.57-1.08 4-1.65 3.496-1.394 16.585-8.01 21.6-10.919 7.399-4.292 18.827-12.273 24.792-17.312 1.172-.99 3.498-2.959 5.17-4.375 5.78-4.898 16.284-15.76 22.717-23.491 3.278-3.939 9.137-11.849 11.507-15.534 1.273-1.98 2.428-3.69 2.565-3.8.387-.311 1.673-2.52 1.92-3.3.122-.385.381-.7.576-.7.194 0 .353-.197.353-.438s.356-.938.791-1.549c1.521-2.136 8.574-15.822 10.57-20.513l1.28-3c2.11-4.939 3.012-7.388 5.413-14.7 1.942-5.911 4.502-14.872 5.144-18 .591-2.88 1.149-5.937 1.791-9.8.347-2.09.734-4.25.86-4.8.988-4.333 1.927-18.573 1.939-29.4.021-20.024-2.18-35.554-7.852-55.4-1.194-4.175-2.127-7.061-4.14-12.8-1.242-3.539-1.609-4.483-3.113-8-3.008-7.036-10.064-21.046-11.893-23.615-.435-.61-.79-1.197-.79-1.306 0-.908-12.136-18.635-13.609-19.879-.131-.11-.497-.577-.814-1.037-2.015-2.924-9.554-11.378-15.157-16.996-9.895-9.922-18.914-17.309-30.631-25.088a3708.666 3708.666 0 0 1-7.209-4.793c-.424-.288-1.247-.77-3.535-2.068a259.105 259.105 0 0 1-3.375-1.969c-2.392-1.419-12.243-6.449-12.629-6.449-.137 0-1.103-.381-2.145-.847-3.299-1.473-4.228-1.86-7.096-2.956-3.014-1.152-4.093-1.58-5.5-2.182-1.53-.654-9.522-3.264-13.1-4.278-4.938-1.4-12.532-3.269-16.6-4.085-1.1-.221-2.54-.516-3.2-.657-2-.426-5.773-.945-10.2-1.404-2.31-.239-6-.634-8.2-.878-4.57-.505-28.994-.763-29.841-.315M219.4 14.631c4.72.563 7.292.917 12.755 1.757 9.213 1.418 25.926 6.033 34.945 9.651l1.8.721c.495.198 1.71.712 2.7 1.141.99.429 2.606 1.122 3.59 1.54 2.588 1.097 12.997 6.402 15.81 8.056 1.32.777 2.94 1.725 3.6 2.108 6.224 3.608 21.595 14.29 23 15.983.11.133 2 1.782 4.2 3.664 33.428 28.606 56.796 71.883 62.175 115.148 1.066 8.572 1.23 10.778 1.458 19.6.656 25.385-5.397 59.718-13.063 74.095-.203.382-.37.879-.37 1.104 0 .801-7.311 16.009-9.52 19.801-.64 1.1-1.572 2.719-2.07 3.598a54.683 54.683 0 0 1-2.058 3.272c-.634.921-1.152 1.795-1.152 1.943 0 .475-7.588 11.347-10.699 15.329-13.419 17.178-34.243 35.712-50.501 44.948-.77.437-1.596.954-1.835 1.148-1.18.955-15.296 8.144-19.765 10.065l-2.8 1.206c-6.278 2.71-21.647 7.767-28.2 9.28l-4.4 1.015c-2.046.473-5.157 1.009-9.2 1.586-1.76.252-4.28.621-5.6.822-9.026 1.369-32.151 1.872-40.8.887-13.953-1.588-20.233-2.699-31.2-5.521-5.673-1.459-17.479-5.273-20.502-6.624-3.006-1.342-4.173-1.839-6.098-2.597-3.761-1.481-15.793-7.696-21-10.846-5.079-3.074-6.702-4.137-11-7.206-22.394-15.991-42.708-38.063-54.399-59.105-5.135-9.242-7.496-13.964-10.6-21.2-5.595-13.044-10.425-30.948-12.571-46.6-1.245-9.076-1.411-12.106-1.398-25.4.015-14.557.566-21.521 2.561-32.4.243-1.32.611-3.39.819-4.6 1.166-6.781 5.525-21.972 7.978-27.8.186-.44 1-2.51 1.811-4.6 2.672-6.89 7.665-17.159 11.05-22.732.852-1.403 1.549-2.623 1.549-2.712 0-.883 13.267-19.647 16.231-22.956.689-.77 3.139-3.56 5.443-6.2 10.256-11.749 29.364-27.607 41.647-34.562.813-.461 2.154-1.223 2.979-1.695.825-.471 2.301-1.306 3.279-1.857.978-.55 2.598-1.477 3.6-2.061 1.002-.584 2.451-1.352 3.221-1.708.77-.355 3.15-1.472 5.29-2.482 2.139-1.009 3.98-1.835 4.09-1.835.11 0 1.379-.54 2.82-1.2 1.441-.66 2.798-1.2 3.015-1.2.218 0 .708-.166 1.09-.368 2.607-1.381 16.691-5.725 24.495-7.554 3.335-.782 5.392-1.229 6.8-1.478.77-.136 2.39-.43 3.6-.653 4.944-.912 14.599-1.946 21.8-2.336 7.899-.427 23.573-.099 29.6.62m-13.948 15.614c-.13.415-.429 2.825-.664 5.355-.235 2.53-.602 6.31-.816 8.4-1.088 10.642-1.073 10.779 1.137 10.794 1.312.009 1.576-.96 2.266-8.317.854-9.114.791-9.093 4.415-1.477 1.674 3.52 3.538 7.39 4.14 8.6l1.096 2.2 2.555.316c3.865.479 3.475 1.489 4.838-12.516.225-2.31.6-5.781.832-7.714.478-3.967.22-4.686-1.676-4.686-1.532 0-1.516-.05-2.2 6.879-.896 9.088-.839 9.041-3.696 3l-3.479-7.365c-1.75-3.705-1.665-3.645-5.615-3.979-2.608-.221-2.92-.17-3.133.51m-25.429.532c-.59.374-.453 2.993.786 15.023.203 1.98.475 4.776.603 6.213.334 3.749.363 3.774 3.849 3.347L188.2 55l-.032-1.6c-.018-.88-.251-3.85-.518-6.6-.267-2.75-.646-6.8-.842-9-.196-2.2-.481-4.765-.633-5.7l-.277-1.7-2.649.006c-1.457.003-2.908.17-3.226.371M152.6 36.044c-4.4 1.304-8.63 2.547-9.4 2.763-2.374.666-2.604.936-2.012 2.364.527 1.272 1.98 1.427 4.012.429 3.432-1.686 3.487-1.616 6.206 7.8 3.69 12.782 3.324 11.8 4.397 11.8 1.084 0 4.608-1.1 5.143-1.605.192-.181-.032-1.541-.504-3.061a190.064 190.064 0 0 1-1.292-4.334c-.243-.88-.581-2.05-.75-2.6-.169-.55-.506-1.72-.748-2.6-.242-.88-.803-2.755-1.246-4.166-1.317-4.193-1.337-4.16 3.294-5.45 2.402-.669 3.131-1.993 1.82-3.304-.589-.589.511-.831-8.92 1.964M249 39.34c-13.131 5.283-11.22 24.324 2.545 25.359 1.736.131 2.932.444 3.455.904 1.73 1.524 3.953 1.464 4.315-.116.111-.488.961-2.957 1.887-5.487 2.306-6.295 2.243-5.856.937-6.508-3.008-1.502-7.755-2.878-8.444-2.447-1.258.788-1.101 2.373.293 2.95 1.733.718 1.772.903.827 3.956-1.869 6.04-8.004 3.362-8.019-3.5-.02-9.321 8.304-14.65 13.863-8.873l1.541 1.602 1.3-.64c5.432-2.675-8.524-9.605-14.5-7.2M116.29 50.9c-7.43 4.112-7.329 3.981-5.49 7.1.66 1.119 1.2 2.108 1.2 2.196 0 .089.608 1.206 1.351 2.483a294.673 294.673 0 0 1 2.9 5.13c5.636 10.223 4.556 9.564 10.306 6.286 2.224-1.268 4.904-2.753 5.956-3.3 3.415-1.777 4.032-2.438 3.456-3.704-.581-1.275-1.313-1.364-2.969-.361-7.157 4.334-7.252 4.342-9.277.797-1.919-3.356-1.914-3.393.658-4.838 1.906-1.072 1.957-1.147 1.556-2.299-.494-1.417-1.333-1.515-3.337-.39-2.116 1.188-2.383 1.056-4.183-2.066-1.686-2.924-1.785-3.73-.52-4.244 1.426-.579 6.89-3.746 7.128-4.13.317-.513-.893-2.36-1.547-2.36-.277 0-3.511 1.665-7.188 3.7M89.586 69.073l-1.281 1.078.283 5.879c.359 7.442.232 7.565-3.563 3.439-1.554-1.689-2.986-3.07-3.182-3.07-.506.001-4.643 3.588-4.643 4.025 0 .342 4.549 5.556 9.053 10.376 3.309 3.54 5.908 6.455 6.47 7.256.764 1.089 1.248.931 3.582-1.165 2.633-2.365 2.693-2.029-1.108-6.201-4.946-5.43-4.724-5.56 4.528-2.649 4.677 1.472 4.779 1.462 7.15-.701 3.456-3.155 3.545-2.915-1.685-4.518L97.281 80.4c-2.155-.66-4.129-1.2-4.386-1.2-.946 0-1.295-1.657-1.295-6.15 0-5.148-.186-5.515-2.014-3.977m212.09 5.427c-11.943 12.391-11.383 11.74-10.845 12.6 1.288 2.064 1.63 1.914 6.209-2.723 6.062-6.137 6.146-6.047 2.104 2.228l-2.857 5.846 1.538 1.574c2.034 2.083 2.327 2.04 8.475-1.261 6.879-3.693 7.211-3.432 2.2 1.73-4.648 4.787-4.729 5.035-2.417 7.391 2.401 2.446 2.211 2.561 11.271-6.861 9.492-9.872 8.849-8.655 6.04-11.43l-2.206-2.178-7.405 3.696c-8.29 4.138-8.492 4.14-6.657.06 2.322-5.162 2.982-6.621 4.116-9.099 1.334-2.912 1.281-3.12-1.407-5.598-2.403-2.215-1.91-2.458-8.159 4.025M188 69.667c-8.587 1.006-12.404 1.619-17.2 2.763-.77.184-1.94.45-2.6.592-16.202 3.481-36.88 14.121-52.4 26.962-1.588 1.313-13.749 13.481-15.012 15.02-4.486 5.466-5.951 7.464-10.458 14.268-5.703 8.609-11.432 20.882-14.532 31.128-6.969 23.039-7.678 45.978-2.16 69.9.241 1.045.58 2.35.754 2.9.173.55.545 1.81.825 2.8 4.683 16.541 14.777 35.135 25.949 47.8 1.933 2.191 11.909 12.148 13.638 13.611 6.717 5.686 8.56 7.094 13.523 10.332 3.67 2.395 6.352 3.992 9.673 5.763 1.43.763 3.41 1.839 4.4 2.391 4.676 2.606 19.967 8.266 25.235 9.341 2.313.471 4.777 1.011 7.365 1.613 7.419 1.725 27.198 2.831 35.384 1.979 8.396-.875 14.233-1.819 20.416-3.304 17.799-4.272 33.826-11.981 48.8-23.47 6.629-5.086 18.055-16.439 22.2-22.057.44-.597 1.873-2.503 3.185-4.236 8.985-11.87 16.858-28.366 20.752-43.482 1.905-7.392 2.766-12.331 3.858-22.108.978-8.759.205-23.851-1.791-34.973-3.54-19.723-14.394-43.356-26.36-57.399-4.096-4.806-4.904-5.681-9.434-10.208-15.269-15.262-30.471-24.828-50.41-31.724-3.86-1.335-9.689-2.914-14.2-3.845-5.109-1.055-5.375-1.095-16.2-2.412-3.995-.485-18.884-.45-23.2.055m27.8 8.294c8.15.977 19.322 3.745 26 6.44.44.177 2.33.911 4.2 1.63 28.037 10.78 55.834 38.06 66.405 65.169a89.907 89.907 0 0 0 1.4 3.4c8.957 19.796 10.769 51.526 4.33 75.8-7.53 28.39-27.872 56.726-50.867 70.856-6.235 3.831-8.707 5.206-13.868 7.709-3.3 1.6-6.63 3.136-7.4 3.413-.77.276-1.76.647-2.2.823-3.672 1.472-8.615 3.092-12.2 3.998-.99.25-2.34.614-3 .807-7.118 2.088-16.026 2.996-29.2 2.975-13.58-.021-22.147-1.065-31.2-3.801-1.54-.465-3.34-.989-4-1.165-1.92-.51-7.491-2.413-8.8-3.006-.66-.299-2.01-.86-3-1.248C125.858 301.37 98.45 274.292 87.863 248c-.399-.99-.891-2.205-1.094-2.7-.203-.495-.549-1.35-.769-1.9-.22-.55-.568-1.405-.774-1.9-.472-1.137-1.765-5.145-2.419-7.5-.275-.99-.642-2.25-.815-2.8-.298-.943-.784-2.939-1.608-6.6-3.334-14.805-3.316-36.936.042-51 .237-.99.615-2.61.84-3.6.226-.99.552-2.25.726-2.8.173-.55.543-1.81.822-2.8 2.345-8.328 5.961-16.951 10.317-24.6 2.631-4.62 9.463-14.801 10.87-16.2.111-.11 1.48-1.73 3.042-3.6 11.158-13.355 27.904-26.011 42.557-32.163.99-.415 2.61-1.11 3.6-1.543l3-1.312c2.455-1.073 13.613-4.378 18-5.333 11.913-2.591 28.473-3.263 41.6-1.688M62.173 99.783c-1.025.614-2.424 2.132-3.777 4.096a7464.636 7464.636 0 0 0-3.72 5.409c-2.069 3.014-2.533 2.476 8.676 10.067 11.344 7.683 10.142 7.237 11.991 4.451 1.973-2.971 1.955-3.021-2.143-5.828-3.679-2.519-4.065-3.056-2.982-4.139.647-.647 2.384-.595 6.182.184 2.601.534 5.211.599 5.527.138.15-.22.873-1.256 1.607-2.302 1.861-2.653 1.684-2.816-3.986-3.683-5.286-.809-6.348-1.343-6.348-3.196 0-4.605-6.727-7.775-11.027-5.197m3.84 6.517c2.841 2.028 2.939 6.5.142 6.5-1.44 0-6.603-4.018-6.328-4.925.84-2.774 3.542-3.462 6.186-1.575m271.787 3.323c-1.76.408-4.1.938-5.2 1.179-1.1.24-2.765.608-3.7.818a300.709 300.709 0 0 1-7.5 1.593c-4.895.974-5.391 1.416-3.67 3.274l.96 1.036 3.042-.707c3.436-.799 3.283-.865 5.078 2.184.518.88 1.185 1.985 1.482 2.455.494.78.363 1.086-1.508 3.527-2.252 2.938-2.248 2.852-.28 6.118 1.55 2.573 1.805 2.586 3.74.2.847-1.045 1.723-2.098 1.948-2.341.224-.243 2.568-3.103 5.208-6.356 2.64-3.254 5.297-6.475 5.904-7.159 1.694-1.908 1.748-2.734.314-4.818-1.407-2.045-1.356-2.036-5.818-1.003m-2.2 4.501c0 .654-3.518 4.833-4.208 4.997-.509.122-1.838-1.501-2.318-2.832-.282-.78.972-1.483 3.926-2.2 2.292-.556 2.6-.552 2.6.035M189.955 137.3c-2.271 2.695-4.227 4.99-4.348 5.1-.12.11-2.724 3.052-5.786 6.538-6.591 7.503-5.685 7.064-14.547 7.056-8.35-.007-8.716-.128-7.062-2.329 1.284-1.708 10.492-12.959 12.284-15.01 1.955-2.237 1.743-4.034-.443-3.775-.985.116-1.455.646-11.986 13.512-6.649 8.122-6.226 7.833-12.25 8.394-7.606.709-8.882 2.395-6.217 8.214 1.636 3.571 1.575 5.023-.315 7.564-6.416 8.626-7.337 14.562-2.228 14.365 3.842-.149 6.439-4.413 7.406-12.162.535-4.287.446-4.115 5.737-11.09 3.839-5.061 3.809-5.048 12.385-5.218 9.086-.18 9.065-.193 5.957 3.963-5.282 7.066-9.696 14.025-12.292 19.378-3.182 6.563-3.59 10.6-1.071 10.6 1.163 0 2.021-1.228 2.021-2.892 0-4.627 9.578-19.975 20.356-32.617 2.114-2.48 4.654-5.464 5.644-6.632.99-1.168 4.118-4.809 6.952-8.091 5.414-6.273 6.436-7.869 5.797-9.062-.784-1.467-1.857-.716-5.994 4.194m-150.204 2.173c-1.219 2.756-1.265 2.541.934 4.364 1.037.86 5.104 4.263 9.037 7.563 10.204 8.561 9.411 8.114 10.231 5.762.469-1.344.537-1.246-3.244-4.661l-1.438-1.299.928-2.559c1.611-4.443 1.368-4.243 5.18-4.243h3.351l1.066-2.789c1.584-4.145 2.363-3.913-13.945-4.135l-11.15-.152-.95 2.149m312.049.545a853.888 853.888 0 0 1-14.476 4.617c-3.89 1.202-3.931 2.693-.301 11.186 6.505 15.223 27.941 6.337 23.212-9.621-2.6-8.773-1.97-8.311-8.435-6.182m-297.956 4.553c.343.894-1.327 4.344-1.935 3.996-1.799-1.029-4.69-3.652-4.703-4.267-.012-.602 6.404-.34 6.638.271m303.329 2.916c.607 2.199.116 3.559-1.961 5.426-5.209 4.683-14.672 4.772-15.832.149-.453-1.805-.086-2.017 7.673-4.444 4.151-1.298 7.806-2.49 8.123-2.647.939-.469 1.584.02 1.997 1.516m-109.042.696c-.698.304-2.026 1.332-2.951 2.285-1.615 1.663-2.426 2.739-6.733 8.932-2.8 4.027-3.362 4.464-4.99 3.875-4.355-1.575-10.284 1.176-16.057 7.449-2.339 2.542-7.55 6.712-9.915 7.935-3.134 1.621-1.836-1.521 3.586-8.683 3.41-4.505 3.681-5.064 2.849-5.896-.975-.975-1.9-.402-4.725 2.926-6.092 7.175-12.645 12.28-14.155 11.027-1.348-1.118-.916-2.203 2.957-7.433 3.782-5.107 3.937-5.366 3.716-6.213-.652-2.49-2.161-1.445-6.774 4.688-4.539 6.036-8.975 9.098-13.922 9.608-6.561.677-9.738-3.965-3.367-4.92 8.652-1.296 13.114-4.59 11.325-8.359-3.186-6.715-18.492 1.368-18.683 9.865-.141 6.28 9.259 8.148 17.602 3.498 2.322-1.294 2.906-1.422 2.906-.637 0 2.38 4.368 3.111 7.899 1.321 2.473-1.253 2.877-.89 1.352 1.215-1.417 1.956-2.38 2.587-5.651 3.701-1.43.487-3.005 1.054-3.5 1.259-.495.206-1.305.528-1.8.716-11.202 4.263-17.124 10.499-14.203 14.957 3.238 4.941 11.216.884 22.529-11.458 2.601-2.838 5.369-5.596 6.152-6.129.782-.534 3.472-2.397 5.979-4.141 5.136-3.575 5.243-3.615 5.243-2.002 0 3.811 4.761 4.771 9.84 1.983 3.088-1.695 4.095-1.617 4.147.321.062 2.299 4.874 2.745 8.031.744 3.931-2.493 3.809-2.463 4.902-1.192 1.305 1.517 4.016 1.527 6.979.026 2.473-1.253 2.877-.89 1.352 1.215-1.417 1.956-2.38 2.587-5.651 3.701-1.43.487-3.005 1.054-3.5 1.259-.495.206-1.305.527-1.8.714-10.932 4.136-16.995 10.348-14.344 14.695 3.212 5.268 11.682 1.07 22.644-11.224 4.574-5.129 4.623-5.175 7.763-7.187 1.568-1.005 4.53-3.068 6.582-4.584 2.053-1.516 4.295-3.047 4.982-3.402 1.502-.777 2.226-1.925 1.606-2.545-.63-.63-1.318-.268-5.644 2.97-9.066 6.787-9.315 4.823-.786-6.184 4.629-5.973 2.232-7.776-2.632-1.979-6.249 7.447-12.182 12.111-14.1 11.084-1.598-.855-1.076-2.127 3.191-7.784 3.29-4.361 3.915-5.585 3.254-6.381-1.244-1.498-3.079.099-7.874 6.856-5.22 7.356-13.59 10.897-11.806 4.995 1.353-4.477 7.413-12.467 11.768-15.516 6.233-4.364 9.785-8.899 8.653-11.049-.867-1.646-1.996-1.892-4.226-.922m2.107 2.896c-.539 1.699-6.704 7.389-7.328 6.764-.472-.472.919-2.432 3.817-5.376 2.835-2.88 4.15-3.4 3.511-1.388m-102.024 8.544c.556.899-4.098 6.661-5.076 6.285-.766-.294-2.085-4.414-1.751-5.468.263-.829 1.169-1.056 4.689-1.176 1.032-.035 1.994.126 2.138.359m83.957 6.206c1.514 1.514-1.299 5.852-5.946 9.168-3.95 2.819-6.047 3.23-7.038 1.379-1.986-3.712 10.046-13.486 12.984-10.547m-46.411 1.495c.883 1.452-2.506 3.255-7.66 4.076-2.144.341-2.295-.426-.4-2.028 3.026-2.558 7.118-3.597 8.06-2.048M31 169.999c-.135.22-.351 1.652-.48 3.182l-.233 2.782 4.157 1.957c6.382 3.005 10.538 5.001 10.729 5.155.451.361-.865.998-3.202 1.55-1.414.334-3.201.771-3.971.972-.77.201-3.02.756-5 1.235-4.36 1.053-4.05.752-4.32 4.192-.291 3.727-.307 3.713 4.545 4.199 2.296.23 5.705.579 7.575.777 13.161 1.391 12.952 1.407 12.72-.966l-.12-1.234-5.938-.679c-9.319-1.067-9.277-1.102 4.67-3.916 1.966-.397 2.119-.593 2.393-3.064.181-1.636.088-2.178-.449-2.633-.704-.598-.99-.734-7.376-3.521-4.122-1.798-5.271-3.06-2.4-2.636 3.503.517 10.543 1.139 10.734.948.501-.5 1.076-5.549.678-5.947-.433-.433-3.154-.851-10.112-1.553a309.65 309.65 0 0 1-7.2-.814c-3.85-.501-7.085-.495-7.4.014m110.756 7.301c-.616 3.57-3.034 7.593-4.15 6.904-.863-.534.048-3.03 2.468-6.765 1.188-1.833 1.985-1.899 1.682-.139M359 179.417c-3.3.276-8.07.634-10.6.794-6.562.417-6.073-.935-4.826 13.346.422 4.832.973 5.657 2.766 4.143.801-.676.814-.856.38-5.181-.572-5.711-.567-5.719 3.877-5.719h3.3l.274 2.421c.295 2.608.712 3.046 2.479 2.602 1.024-.257 1.043-.319.782-2.62-.331-2.927.041-3.203 4.315-3.203 3.51 0 3.28-.331 3.674 5.29.308 4.397.724 5.137 2.445 4.353l1.043-.476-.254-3.683c-.139-2.026-.368-5.484-.507-7.684s-.432-4.225-.65-4.5c-.447-.564-.327-.566-8.498.117m-164.789 8.201c.78 1.261-8.071 10.102-11.982 11.968-4.601 2.196-6.908 1.009-5.168-2.659 1.629-3.432 15.971-11.217 17.15-9.309m50.189.045c0 1.851-8.44 10.143-12.106 11.892-6.368 3.039-8.281-1.238-2.511-5.615 1.923-1.459 10.511-6.064 12.019-6.445 1.47-.372 2.598-.299 2.598.168m-99.6 5.492c-15.586 5.045-33.259 29.213-30.832 42.163 1.978 10.55 10.437 12.657 22.567 5.62 2.177-1.262 2.349-1.302 2.537-.583.589 2.25 2.253 1.295 5.134-2.947 4.095-6.028 11.252-12.119 13.799-11.743 2.262.334 2.051 1.508-1.205 6.72-4.667 7.47-.197 11.817 6.598 6.416 1.842-1.463 1.634-1.475 2.401.141 1.311 2.762 5.166 3.27 8.601 1.134 3.133-1.948 3.468-1.962 4.982-.211 1.681 1.943 4.504 2.136 7.642.522l1.889-.971.592.892c.911 1.371 2.273 1.134 3.495-.608 6.643-9.476 7.36-10.333 10.178-12.152 2.648-1.709 5.222-1.438 5.222.55 0 .405-1.395 2.724-3.1 5.151-3.945 5.617-4.318 6.315-3.812 7.12 1.139 1.808 2.033 1.17 5.762-4.112 5.23-7.409 8.562-10.192 11.85-9.901.923.081.514 1.024-2.072 4.773-6.185 8.967-2.941 13.59 5.38 7.666 1.299-.926 1.591-.98 1.594-.295.014 3.464 5.948 3.813 10.67.628 1.721-1.161 2.656-1.496 1.808-.648-1.444 1.444.242 3.79 2.404 3.344 2.048-.422 2.747-.379 5.236.322 4.976 1.403 9.9.198 15.052-3.684l2.171-1.636 1.029 2.056c2.263 4.525 7.105 4.865 12.847.901.908-.627 2.203-1.054 3.6-1.187 4.735-.451 11.696-5.41 9.03-6.433-.303-.116-1.946.7-3.651 1.813-3.618 2.362-5.148 2.718-3.964.924 5.199-7.877-.136-14.846-8.074-10.547-1.266.686-2.873 1.247-3.572 1.247-1.645 0-3.299 1.571-4.986 4.735-2.549 4.783-9.136 9.265-13.616 9.265-2.146 0-3.986-.656-3.986-1.421 0-1.085 11.214-10.026 15.875-12.656 1.834-1.035 3.303-2.528 2.857-2.903-.926-.78-2.018-.869-4.732-.384-5.822 1.041-10.471 1.163-12.778.333-3.146-1.131-5.643.619-3.795 2.661.816.902.948.702-3.627 5.51-6.875 7.226-12.2 10.155-12.2 6.711 0-.935 2.601-4.954 6.045-9.342 2.121-2.703 2.407-3.839 1.138-4.518-.998-.534-2.787 1.141-6.861 6.425-7.002 9.081-14.725 11.875-8.344 3.018 5.925-8.223 4.088-12.229-4.041-8.808l-2.438 1.027-1.125-1.078c-1.172-1.123-2.384-1.184-6.69-.338-.954.187-1.523.071-2.071-.425-1.232-1.115-2.159-.435-5.367 3.938-5.466 7.449-11.681 12.035-14.202 10.477-1.41-.871.463-4.536 4.601-9.006 2.584-2.792 2.695-4.021.361-4.021-.737 0-2.204-.371-3.261-.824-3.158-1.353-6.627-1.034-10.145.934-3.288 1.84-5.229 3.591-9.278 8.369-3.087 3.643-7.129 5.81-7.762 4.161-.118-.308.805-2.208 2.051-4.223 4.657-7.528 2.396-12.287-4.473-9.417-4.259 1.78-2.497-.611 3.228-4.381 7.725-5.086 10.346-8.907 7.834-11.419-2.888-2.888-6.295.033-15.394 13.2-8.262 11.955-8.465 12.211-11.606 14.578-8.791 6.628-18.116 7.721-21.184 2.485-5.049-8.615 10.516-34.239 24.858-40.924 3.337-1.555 8.205-1.951 8.683-.706.486 1.267.185 1.684-3.088 4.277-8.965 7.106-12.241 13.409-8.77 16.88 3.708 3.708 11.37-3.197 14.451-13.022 1.84-5.868 2.314-6.329 7.65-7.451 3.141-.66 3.883-1.242 3.203-2.512-.571-1.066-3.256-.901-6.874.421-2.754 1.007-3.304.977-4.089-.221-1.612-2.46-5.625-3.214-9.84-1.85m8.228 9.775c.295.767-1.184 3.995-3.259 7.116-3.507 5.276-8.169 8.252-8.169 5.216 0-3.402 10.505-14.738 11.428-12.332m11.902 8.57c-.356 1.016-2.473 3.198-4.402 4.538-1.936 1.346-2.2 1.414-1.841.48 1.062-2.768 7.176-7.683 6.243-5.018m70.674 8.295c-.283.341-.386 1.023-.241 1.6.326 1.298 2.378 1.437 3.037.205.937-1.75-1.523-3.338-2.796-1.805m42.67 6.295c2.115 1.01 2.07 4.25-.107 7.603-2.036 3.136-5.385 1.971-6.88-2.394-1.28-3.735 3.153-7.04 6.987-5.209m-95.028.452c1.224 2.686-6.589 10.493-10.932 10.923-2.315.229-2.901-.244-2.82-2.278.201-5.022 12.018-12.451 13.752-8.645m71.554-.569c0 .205-.585.781-1.3 1.28-.715.499-3.1 2.461-5.3 4.36-6.266 5.408-7.187 5.987-9.523 5.987h-2.004l2.369-2.5c2.541-2.682 6.182-6.832 7.118-8.114.461-.633 1.223-.831 3.907-1.018 1.833-.128 3.648-.263 4.033-.3.385-.038.7.1.7.305m13.828 6.629c.365.77 1.544 2.137 2.618 3.037 2.867 2.4 2.135 3.794-2.231 4.244-3.521.364-4.859-2.21-3.206-6.165 1.208-2.891 1.855-3.148 2.819-1.116M47.8 245.948c-7.028 4.365-4.204 14.852 4 14.852s11.024-11.264 3.76-15.02c-1.667-.863-6.261-.763-7.76.168m296.156.355c-4.919 3.657-4.235 11.647 1.193 13.93 6.964 2.928 13.861-4.348 10.454-11.028-1.983-3.887-8.228-5.443-11.647-2.902m-53.153 66.621c-1.658.826-1.387 1.627 2.085 6.141 7.464 9.706 7.989 11.244 4.848 14.195-2.443 2.295-5.583 1.092-9.039-3.46-5.199-6.849-6.764-8.806-7.27-9.089-.596-.334-4.627 2.563-4.627 3.326 0 .475 6.276 8.802 8.766 11.629 3.996 4.54 9.691 4.677 14.03.338 4.667-4.667 4.149-8.044-2.609-17.004-5.319-7.052-4.952-6.691-6.184-6.076m-185.612 2.722a321.22 321.22 0 0 1-3.689 4.7c-8.45 10.457-8.289 10.113-5.735 12.206 2.393 1.96 2.556 1.908 5.433-1.752 2.887-3.673 2.823-3.651 5.156-1.796 2.036 1.618 2.105 1.634 2.982.665.974-1.077.845-1.422-1.138-3.048-2.207-1.808-2.209-1.925-.1-4.738 2.386-3.183 2.925-3.235 6.202-.602 3.618 2.907 3.624 2.91 4.523 2.096 1.385-1.253.381-2.398-6.828-7.777a74.558 74.558 0 0 1-2.426-1.9c-1.609-1.333-1.982-1.167-4.38 1.946M133.4 332.15c-12.743 3.228-13.036 20.401-.404 23.699 8.404 2.195 16.603-6.591 14.254-15.273-1.586-5.859-8.17-9.865-13.85-8.426m120.8 2.89c-11.468 5.846-7.416 22.96 5.437 22.96 10.849 0 15.789-13.177 7.829-20.883-3.323-3.218-9.218-4.14-13.266-2.077m-114.845.943c2.9 1.102 3.041 6.839.28 11.417-4.029 6.683-9.867 6.591-9.813-.154.052-6.498 5.412-12.83 9.533-11.263m120.306 2.5c4.231 2.377 6.973 10.561 4.757 14.195-2.891 4.741-10.27-1.411-10.751-8.962-.333-5.233 2.146-7.397 5.994-5.233m-96.29 4.449c-.559 1.455-4.398 21.501-4.184 21.847.254.41 3.288 1.196 4.682 1.211.981.011 1.34-.864 2.174-5.304.702-3.741 2.73-4.688 3.372-1.574.299 1.451.952 4.002 1.412 5.516.205.676.373 1.535.373 1.909 0 .734.788 1.125 3.6 1.79 2.869.678 2.992.281 1.576-5.086l-1.202-4.553 2.183-2.044c5.267-4.933 2.824-11.312-4.864-12.703a238.483 238.483 0 0 1-4.093-.78c-4.286-.868-4.775-.891-5.029-.229m66.174.968c-.568.686-.93 1.678-1.937 5.3-1.399 5.03-1.354 5.031-4.639-.048l-2.619-4.049-1.475.244c-.811.134-1.936.246-2.499.249-2.959.012-2.833.572 1.733 7.654 4.182 6.485 4.243 6.615 4.889 10.359.807 4.673.74 4.607 4.019 3.988l2.674-.505-.219-1.846a159.783 159.783 0 0 0-.656-4.631c-.367-2.339-.33-3.14.23-5 .367-1.218 1.016-3.385 1.442-4.815.426-1.43.933-3.05 1.127-3.6 1.264-3.583-.073-5.714-2.07-3.3m-57.264 3.524c2.451 1.585.698 7.376-2.233 7.376-2.203 0-2.612-.732-2.087-3.742.86-4.942 1.485-5.468 4.32-3.634" fill="#f6f6f6"/><path d="M181.667.346c-4.429.211-5.421.373-5.845.954-.425.583-1.155.7-4.366.7-2.304 0-3.856.161-3.856.4 0 .227-1.173.4-2.72.4-1.496 0-2.891.163-3.1.363-.209.2-1.28.467-2.38.593-1.1.127-2.929.34-4.063.473-1.197.141-2.408.564-2.884 1.007-.546.509-1.4.764-2.56.764-.957 0-2.089.264-2.517.587-.427.323-1.451.593-2.276.6-.825.007-1.5.193-1.5.413 0 .22-.72.4-1.6.4-.88 0-1.6.18-1.6.4 0 .22-.538.4-1.197.4-.763 0-1.377.29-1.696.8-.333.534-.933.8-1.803.8-.717 0-1.304.18-1.304.4 0 .22-.529.4-1.176.4-.647 0-1.288.18-1.424.4-.136.22-.766.4-1.4.4-.634 0-1.264.18-1.4.4-.136.22-.68.4-1.21.4-.552 0-1.144.34-1.39.8-.302.564-.838.8-1.814.8-.762 0-1.386.18-1.386.4 0 .22-.54.4-1.2.4-.66 0-1.2.18-1.2.4 0 .22-.433.4-.962.4-1.059 0-4.238 1.556-4.238 2.074 0 .179-.36.326-.8.326-.44 0-.8.141-.8.313 0 .172-.825.556-1.833.854-1.009.297-1.928.787-2.043 1.087-.115.3-.549.546-.963.546-.415 0-.979.36-1.254.8-.275.44-.906.8-1.403.8s-.904.18-.904.4c0 .22-.45.4-1 .4s-1 .18-1 .4c0 .22-.341.4-.758.4-.416 0-1.335.54-2.042 1.2-.707.66-1.536 1.2-1.842 1.2-.307 0-.558.18-.558.4 0 .22-.36.4-.8.4-.44 0-.802.135-.805.3-.002.165-.722.644-1.6 1.064-.877.421-1.595 1.006-1.595 1.3 0 .295-.272.536-.605.536-.585 0-2.185.759-2.595 1.23-.11.127-.785.571-1.5.986-.715.416-1.3.968-1.3 1.227 0 .259-.419.575-.93.704-.512.128-1.5.778-2.197 1.443-.696.666-1.465 1.21-1.709 1.21s-.947.54-1.564 1.2c-.617.66-1.409 1.2-1.76 1.2-.352 0-.64.18-.64.4 0 .22-.248.4-.552.4-.303 0-1.183.72-1.954 1.6-.772.88-1.636 1.6-1.922 1.6-.285 0-1.387.9-2.447 2s-2.033 2-2.162 2c-.686 0-3.347 2.301-3.354 2.9-.005.385-.293.7-.64.7-.696 0-3.769 2.922-3.769 3.584a.418.418 0 0 1-.417.416C60.95 55.6 58 58.453 58 59.064c0 .295-.165.536-.366.536C57.2 59.6 54 62.523 54 62.919c0 .413-1.332 1.881-1.707 1.881-.485 0-2.293 1.892-2.293 2.399 0 .506-.276.85-3.1 3.866-1.155 1.233-2.1 2.383-2.1 2.554 0 .172-.585.932-1.3 1.689-1.958 2.075-2.7 3.053-2.7 3.559 0 .251-.72 1.142-1.6 1.979-.88.837-1.6 1.799-1.6 2.138 0 .339-.18.616-.4.616-.22 0-.4.257-.4.571 0 .315-.768 1.374-1.708 2.354-1.69 1.764-2.124 2.448-3.156 4.975-.292.715-.763 1.3-1.046 1.3-.283 0-.631.315-.773.7-.142.385-.362.79-.488.9-.471.412-1.229 2.011-1.229 2.595 0 .333-.18.605-.4.605-.22 0-.4.32-.4.712 0 .391-.36.971-.8 1.288-.44.317-.8.897-.8 1.288 0 .392-.18.712-.4.712-.22 0-.4.27-.4.6 0 .33-.18.6-.4.6-.22 0-.4.45-.4 1s-.18 1-.4 1c-.22 0-.4.332-.4.738 0 .406-.354 1.058-.787 1.45-.816.739-3.613 6.149-3.613 6.99 0 .263-.27.749-.6 1.079-.33.33-.6.928-.6 1.329 0 .401-.27.832-.6.959-.33.126-.6.585-.6 1.019 0 .434-.18.9-.4 1.036-.22.136-.4.687-.4 1.224 0 .537-.18.976-.4.976-.22 0-.4.525-.4 1.167 0 .641-.188 1.229-.418 1.306-.23.076-.447.586-.483 1.133-.036.547-.388 1.229-.782 1.517-.409.298-.717 1.029-.717 1.7 0 .647-.18 1.177-.4 1.177-.22 0-.4.529-.4 1.176 0 .647-.18 1.288-.4 1.424-.22.136-.4.777-.4 1.424 0 .647-.18 1.176-.4 1.176-.22 0-.4.692-.4 1.538 0 1.03-.264 1.777-.8 2.262-.496.449-.8 1.232-.8 2.062 0 .736-.18 1.338-.4 1.338-.22 0-.4.619-.4 1.376 0 .757-.18 1.488-.4 1.624-.22.136-.406.822-.413 1.524-.007.702-.277 1.625-.6 2.052-.323.428-.587 1.54-.587 2.472 0 .973-.255 1.95-.6 2.295-.387.387-.6 1.376-.6 2.786 0 1.574-.168 2.25-.6 2.416-.455.174-.6.911-.6 3.042 0 1.609-.171 2.813-.4 2.813-.228 0-.4 1.192-.4 2.776 0 1.527-.18 2.888-.4 3.024-.22.136-.4 1.773-.4 3.638 0 2.381-.184 3.67-.617 4.332-.83 1.266-.717 43.052.117 43.33.347.116.5 1.195.5 3.533 0 1.978.165 3.367.4 3.367.231 0 .4 1.259.4 2.976 0 1.637.18 3.088.4 3.224.22.136.4 1.102.4 2.147 0 1.051.262 2.247.587 2.677.324.427.599 1.675.613 2.776.014 1.101.289 2.349.613 2.776.323.428.587 1.463.587 2.3 0 1.088.172 1.524.6 1.524.461 0 .6.511.6 2.2 0 1.21.18 2.2.4 2.2.22 0 .4.619.4 1.376 0 .757.18 1.488.4 1.624.22.136.4.917.4 1.735 0 1.03.247 1.666.8 2.065.557.402.8 1.035.8 2.088 0 .832.18 1.512.4 1.512.22 0 .4.45.4 1s.18 1 .4 1c.22 0 .4.72.4 1.6 0 .88.18 1.6.4 1.6.22 0 .4.416.4.925 0 .508.36 1.311.8 1.783.44.472.8 1.136.8 1.475 0 .339.18.617.4.617.22 0 .4.542.4 1.205s.18 1.563.4 2l.8 1.59c.22.437.4.968.4 1.18 0 .211.54 1.185 1.2 2.163.66.978 1.2 2.157 1.2 2.62 0 .463.18.842.4.842.22 0 .4.347.4.771 0 .425.27 1.042.6 1.372.33.33.6.883.6 1.228 0 .346.18.629.4.629.22 0 .4.32.4.712 0 .391.36.971.8 1.288.44.317.8.897.8 1.288 0 .392.18.712.4.712.22 0 .4.343.4.762 0 1.163 1.71 4.135 2.5 4.345.462.123.7.579.7 1.34 0 .634.18 1.153.4 1.153.22 0 .4.36.4.8 0 .44.167.8.371.8s.689.72 1.077 1.6c.388.88.864 1.6 1.058 1.6.588 0 1.494 1.102 1.494 1.818 0 .703 2.445 4.304 3.686 5.429.393.356.714.941.714 1.3 0 .359.18.653.4.653.22 0 .4.262.4.583 0 .321.72 1.34 1.6 2.265.88.925 1.6 1.923 1.6 2.217 0 .294.15.535.332.535.183 0 .588.487.9 1.083.313.595 1.063 1.56 1.668 2.143.605.583 1.1 1.17 1.1 1.304 0 .269 1.518 2 4.7 5.36 1.155 1.22 2.1 2.463 2.1 2.764 0 .3.278.546.618.546.645 0 2.582 1.72 2.582 2.293 0 .182.945 1.247 2.1 2.368 1.155 1.122 2.481 2.466 2.946 2.989a27.794 27.794 0 0 0 2 1.963c.635.558 1.604 1.591 2.154 2.297.55.705 1.239 1.284 1.531 1.286.293.002 1.223.724 2.069 1.604.846.88 1.689 1.6 1.875 1.6.186 0 1.055.83 1.931 1.845.877 1.015 2.584 2.527 3.794 3.36 1.21.834 2.597 1.893 3.083 2.355.486.462 1.033.84 1.215.84.182 0 1.134.715 2.116 1.589.983.873 2.011 1.593 2.286 1.6.275.006.5.191.5.411 0 .22.27.4.6.4.33 0 .6.146.6.325 0 .179.63.573 1.4.875.77.302 1.4.773 1.4 1.047 0 .273.81.901 1.8 1.396.99.494 1.8 1.047 1.8 1.228 0 .181.36.329.8.329.44 0 .801.135.803.3.001.165.676.748 1.5 1.296.823.548 1.587 1.088 1.697 1.2.452.461 3.717 2.004 4.238 2.004.309 0 .562.15.562.333 0 .403 4.689 2.867 5.456 2.867.299 0 .544.18.544.4 0 .22.54.4 1.2.4.933 0 1.2.178 1.2.8 0 .525.267.8.776.8.427 0 .888.18 1.024.4.136.22.575.4.975.4s.936.252 1.192.561c.256.308 1.268.797 2.249 1.087.981.29 1.784.666 1.784.837 0 .356 2.639 1.603 5 2.363.88.283 1.771.659 1.98.834.209.175.931.318 1.604.318.79 0 1.4.283 1.723.8.319.51.933.8 1.696.8.659 0 1.197.18 1.197.4 0 .22.439.4.976.4.537 0 1.088.18 1.224.4.136.22.867.4 1.624.4.757 0 1.376.18 1.376.4 0 .22.68.4 1.512.4 1.053 0 1.686.243 2.088.8.402.557 1.035.8 2.088.8.832 0 1.512.18 1.512.4 0 .22.529.4 1.176.4.647 0 1.288.18 1.424.4.136.22 1.036.4 2 .4s1.858.17 1.986.377c.128.207 1.083.499 2.123.649 1.04.149 2.19.533 2.555.853.685.599 3.69 1.232 7.536 1.588 1.21.112 2.371.368 2.58.568.209.201 1.773.365 3.476.365s3.208.18 3.344.4c.143.232 2.334.4 5.214.4 4.26 0 5.153.114 6.276.799 2.022 1.232 27.454 1.233 30.004.001 1.46-.705 2.475-.8 8.558-.8 4.169 0 6.999-.158 7.148-.4.136-.22 1.317-.4 2.624-.4 1.317 0 2.376-.178 2.376-.4 0-.222 1.059-.4 2.376-.4 1.307 0 2.473-.156 2.591-.347.118-.191 1.101-.465 2.185-.609 1.083-.144 2.061-.5 2.173-.792.13-.339 1.257-.618 3.134-.776 1.612-.135 2.993-.432 3.069-.661.076-.228 1.013-.415 2.082-.415 1.068 0 2.054-.18 2.19-.4.136-.22.777-.4 1.424-.4.647 0 1.176-.18 1.176-.4 0-.22.602-.4 1.338-.4.83 0 1.613-.304 2.062-.8.485-.536 1.232-.8 2.262-.8.846 0 1.538-.18 1.538-.4 0-.22.709-.4 1.576-.4.867 0 1.688-.18 1.824-.4.136-.22.597-.4 1.024-.4.427 0 .776-.18.776-.4 0-.22.45-.4 1-.4s1.36-.36 1.8-.8c.44-.44 1.329-.8 1.976-.8s1.288-.18 1.424-.4c.136-.22.509-.4.828-.4.319 0 1.344-.335 2.276-.743.933-.409 2.191-.945 2.796-1.192.605-.246 1.1-.632 1.1-.856 0-.225.439-.409.976-.409.537 0 1.088-.18 1.224-.4.136-.22.569-.4.961-.4.393 0 1.238-.45 1.877-1 .639-.549 1.449-.999 1.8-1 .351 0 .964-.36 1.362-.8.398-.44 1.045-.8 1.438-.8s.826-.18.962-.4c.136-.22.687-.4 1.224-.4.537 0 .976-.18.976-.4 0-.22.27-.4.6-.4.33 0 .6-.18.6-.4 0-.22.27-.4.6-.4.33 0 .6-.18.6-.4 0-.22.27-.4.6-.4.33 0 .6-.18.6-.4 0-.22.349-.4.776-.4.427 0 .888-.18 1.024-.4.136-.22.552-.4.924-.4.372-.001 1.162-.406 1.757-.9 2.294-1.91 2.906-2.3 3.6-2.3.396 0 .719-.143.719-.317 0-.175.898-.85 1.995-1.5 1.097-.651 2.1-1.498 2.227-1.883.128-.385.58-.7 1.005-.7.425 0 .773-.18.773-.4 0-.22.28-.4.621-.4.81 0 3.379-2.053 3.379-2.7 0-.275.428-.5.952-.5.569 0 1.615-.644 2.6-1.6.907-.88 1.829-1.6 2.048-1.6.22 0 .4-.18.4-.4 0-.22.27-.4.6-.4.33 0 .6-.18.6-.4 0-.22.173-.4.385-.4.382 0 2.923-2.267 7.06-6.3 1.185-1.155 2.363-2.1 2.617-2.1.255 0 1.169-.72 2.031-1.6.863-.88 1.652-1.6 1.755-1.6.425 0 9.352-9.457 9.352-9.907 0-.162.945-1.334 2.1-2.605 1.155-1.272 3-3.393 4.1-4.715 1.1-1.323 2.578-3.044 3.283-3.827.706-.783 1.515-1.946 1.798-2.584.283-.639.65-1.162.817-1.162.166 0 .304-.225.306-.5.003-.275.678-1.22 1.502-2.1.823-.88 1.766-2.137 2.095-2.794.617-1.231 1.159-1.967 2.681-3.639.484-.533 1.198-1.643 1.584-2.468.387-.824.89-1.702 1.119-1.95.228-.248.685-.855 1.015-1.349.33-.494.825-1.133 1.1-1.42.275-.288.5-.806.5-1.151 0-.346.18-.629.4-.629.22 0 .4-.435.4-.966 0-.555.511-1.448 1.2-2.099.66-.623 1.2-1.448 1.2-1.834 0-.385.18-.701.4-.701.22 0 .4-.349.4-.776 0-.427.18-.888.4-1.024.22-.136.4-.597.4-1.024 0-.427.18-.776.4-.776.22 0 .4-.358.4-.797 0-.438.36-1.021.8-1.296.44-.275.8-.816.8-1.203 0-.387.145-.704.323-.704.178 0 .638-.765 1.024-1.7.385-.935.87-2.013 1.077-2.395.207-.382.376-.956.376-1.277 0-.546 1.485-3.39 1.999-3.828.129-.11.473-1.01.763-2 .559-1.9 1.1-3.346 1.685-4.495.194-.382.357-.922.362-1.2.005-.278.361-.955.791-1.505.43-.55.786-1.585.791-2.3.005-.715.189-1.3.409-1.3.22 0 .4-.45.4-1s.18-1 .4-1c.22 0 .4-.9.4-2s.18-2 .4-2c.22 0 .4-.628.4-1.397 0-.963.248-1.551.8-1.896.57-.356.8-.933.8-2.003 0-.827.18-1.504.4-1.504.22 0 .4-.881.4-1.957 0-1.371.18-2.026.6-2.188.41-.157.6-.798.6-2.019 0-.984.18-1.9.4-2.036.22-.136.4-1.257.4-2.492 0-1.562.209-2.476.688-3.005.684-.756 1.171-3.332 1.569-8.303.114-1.43.373-2.771.575-2.98.203-.209.368-2.054.368-4.1 0-2.213.162-3.72.4-3.72.551 0 .551-42.659 0-43-.22-.136-.4-1.666-.4-3.4s-.18-3.264-.4-3.4c-.22-.136-.4-1.486-.4-3s-.18-2.864-.4-3c-.22-.136-.4-1.292-.4-2.57 0-1.716-.209-2.587-.8-3.339-.559-.711-.8-1.623-.8-3.03 0-1.108-.18-2.125-.4-2.261-.22-.136-.4-.944-.4-1.795s-.27-1.818-.6-2.148c-.33-.33-.6-1.142-.6-1.805s-.18-1.316-.4-1.452c-.22-.136-.4-1.047-.4-2.024 0-1.458-.132-1.776-.737-1.776-.607 0-.741-.331-.765-1.888-.016-1.039-.224-1.954-.463-2.034-.239-.079-.435-.659-.435-1.288 0-.628-.18-1.254-.4-1.39-.22-.136-.4-.766-.4-1.4 0-.634-.18-1.264-.4-1.4-.22-.136-.4-.784-.4-1.44 0-.657-.36-1.58-.8-2.052-.44-.472-.8-1.174-.8-1.56 0-.385-.18-.812-.4-.948-.22-.136-.4-.599-.4-1.029 0-.43-.18-1.139-.4-1.576l-.8-1.59c-.22-.437-.4-1.01-.4-1.273 0-.771-1.637-3.932-2.036-3.932-.2 0-.364-.439-.364-.976 0-.537-.18-1.088-.4-1.224-.22-.136-.4-.597-.4-1.024 0-.427-.18-.776-.4-.776-.22 0-.4-.347-.4-.771 0-.425-.27-1.042-.6-1.372-.33-.33-.6-.883-.6-1.228 0-.362-.339-.629-.8-.629-.622 0-.8-.267-.8-1.2 0-.66-.18-1.2-.4-1.2-.22 0-.4-.45-.4-1s-.18-1-.4-1c-.22 0-.4-.287-.4-.638 0-.654-1.52-3.056-2.086-3.295-.172-.074-.314-.353-.314-.621 0-.709-.949-2.639-1.3-2.643-.165-.002-.3-.355-.3-.785 0-.43-.45-1.232-1-1.782s-1-1.193-1-1.43c0-.237-.27-.535-.6-.661-.33-.127-.6-.461-.6-.742 0-.961-3.317-6.203-3.925-6.203-.157 0-.593-.708-.968-1.574-.375-.866-1.318-2.21-2.095-2.987-.776-.777-1.412-1.573-1.412-1.769 0-.196-.883-1.307-1.962-2.469-1.079-1.161-2.204-2.582-2.5-3.156a9.6 9.6 0 0 0-1.338-1.877c-1.389-1.445-3-3.51-3-3.845 0-.178-.226-.323-.502-.323-.277 0-.722-.495-.991-1.1-.268-.605-1.032-1.34-1.697-1.634-.666-.293-1.21-.788-1.21-1.1 0-.311-.18-.566-.4-.566-.22 0-.4-.198-.4-.44 0-.512-2.315-2.76-2.842-2.76-.197 0-.358-.233-.358-.519 0-.599-2.839-3.481-3.429-3.481-.217 0-.659-.389-.983-.865-.997-1.467-3.654-3.935-4.236-3.935-.304 0-.552-.283-.552-.629 0-.766-.584-1.333-2.407-2.339-.766-.423-1.842-1.299-2.391-1.948-.549-.649-1.802-1.734-2.785-2.41-.982-.676-2.315-1.734-2.961-2.352-.646-.617-1.379-1.122-1.63-1.122-.25 0-1.258-.715-2.24-1.589-.983-.873-1.945-1.593-2.139-1.6-.194-.006-.644-.326-1-.711-.356-.385-1.223-1.02-1.927-1.411s-1.815-1.246-2.469-1.9c-.654-.654-1.473-1.189-1.82-1.189s-.631-.16-.631-.357c0-.196-.416-.461-.925-.588-.508-.128-1.453-.687-2.1-1.243-.646-.556-1.4-1.011-1.675-1.012-.275 0-.5-.147-.5-.326 0-.466-3.131-2.074-4.038-2.074-.431 0-.762-.277-.762-.637 0-.351-.36-.732-.8-.847-.44-.115-.8-.368-.8-.563 0-.194-.36-.353-.8-.353-.44 0-.8-.18-.8-.4 0-.22-.36-.4-.8-.4-.44 0-.8-.18-.8-.4 0-.22-.448-.4-.997-.4-.563 0-1.213-.348-1.496-.8-.275-.44-.816-.8-1.203-.8-.387 0-.704-.145-.704-.323 0-.354-2.788-1.677-3.534-1.677-.256 0-.466-.18-.466-.4 0-.22-.439-.4-.976-.4-.537 0-1.089-.181-1.226-.403-.311-.503-3.362-1.997-4.079-1.997-.291 0-.932-.208-1.424-.462-1.969-1.018-2.326-1.138-3.393-1.138-.676 0-1.305-.312-1.609-.8-.277-.444-.933-.8-1.473-.8-.535 0-1.084-.18-1.22-.4-.136-.22-.597-.4-1.024-.4-.427 0-.776-.18-.776-.4 0-.22-.72-.4-1.6-.4-.88 0-1.6-.18-1.6-.4 0-.22-.422-.4-.938-.4s-1.264-.36-1.662-.8c-.449-.496-1.232-.8-2.062-.8-.736 0-1.338-.18-1.338-.4 0-.22-.72-.4-1.6-.4-.88 0-1.6-.18-1.6-.4 0-.22-.855-.406-1.9-.413-1.045-.007-2.249-.277-2.676-.6-.428-.323-1.463-.587-2.3-.587-.838 0-1.524-.151-1.524-.336 0-.545-1.931-1.264-3.395-1.264-.747 0-1.469-.18-1.605-.4-.136-.22-.856-.4-1.6-.4-.744 0-1.464-.18-1.6-.4-.136-.22-1.666-.4-3.4-.4s-3.264-.18-3.4-.4c-.137-.221-1.943-.4-4.04-.4-3.194 0-3.967-.129-4.899-.818C222.86.294 194.49-.266 181.667.346M216.6 2.313c2.2.244 5.89.639 8.2.878 4.427.459 8.2.978 10.2 1.404.66.141 2.1.436 3.2.657 4.068.816 11.662 2.685 16.6 4.085 3.578 1.014 11.57 3.624 13.1 4.278 1.407.602 2.486 1.03 5.5 2.182 2.868 1.096 3.797 1.483 7.096 2.956 1.042.466 2.008.847 2.145.847.386 0 10.237 5.03 12.629 6.449 1.171.694 2.69 1.581 3.375 1.969 2.288 1.298 3.111 1.78 3.535 2.068.231.157 3.475 2.314 7.209 4.793 11.717 7.779 20.736 15.166 30.631 25.088 5.603 5.618 13.142 14.072 15.157 16.996.317.46.683.927.814 1.037 1.473 1.244 13.609 18.971 13.609 19.879 0 .109.355.696.79 1.306 1.028 1.444 3.056 5.244 6.627 12.415 2.69 5.402 3.763 7.685 5.266 11.2 7.505 17.554 12.727 39.063 14.616 60.2 1.058 11.845.22 38.078-1.45 45.4-.126.55-.513 2.71-.86 4.8-.642 3.863-1.2 6.92-1.791 9.8-.642 3.128-3.202 12.089-5.144 18-2.401 7.312-3.303 9.761-5.413 14.7l-1.28 3c-1.996 4.691-9.049 18.377-10.57 20.513-.435.611-.791 1.308-.791 1.549 0 .241-.159.438-.353.438-.195 0-.454.315-.576.7-.247.78-1.533 2.989-1.92 3.3-.137.11-1.292 1.82-2.565 3.8-7.752 12.053-23.254 29.73-34.224 39.025a6903.865 6903.865 0 0 1-5.17 4.375c-5.965 5.039-17.393 13.02-24.792 17.312-5.015 2.909-18.104 9.525-21.6 10.919-1.43.57-3.23 1.313-4 1.65-.77.338-1.94.847-2.6 1.132-1.348.583-13.531 4.637-16 5.325a760.854 760.854 0 0 1-9.8 2.648c-33.182 8.636-74.154 6.7-109.82-5.188-4.665-1.555-7.704-2.667-10.38-3.798-.66-.279-1.56-.637-2-.796-3.094-1.119-22.779-10.905-23.4-11.634-.11-.129-.785-.489-1.5-.8-.715-.311-1.3-.701-1.3-.868 0-.166-.194-.302-.43-.302-.389 0-11.307-7.32-14.808-9.929-3.517-2.62-5.882-4.447-6.401-4.943-.309-.295-2.991-2.63-5.961-5.19-8.708-7.504-16.99-16.238-25.856-27.267-4.495-5.592-12.739-17.785-16.004-23.671-4.827-8.7-10.433-20.81-13.333-28.8-.479-1.32-1.037-2.713-1.239-3.095-.202-.382-.368-.969-.368-1.305 0-.336-.16-.923-.355-1.305-2.718-5.323-7.262-25.832-9.238-41.695-2.833-22.751-.142-54.67 6.458-76.6 1.141-3.79 3.893-12.211 4.314-13.2.187-.44.557-1.43.821-2.2.264-.77.637-1.76.829-2.2.191-.44 1.177-2.78 2.191-5.2 1.892-4.517 6.25-13.552 7.909-16.4.513-.88 1.479-2.59 2.146-3.8 1.794-3.255 5.13-8.595 7.495-12 3.319-4.778 6.623-9.317 7.57-10.4.481-.55 1.313-1.63 1.848-2.4.536-.77 1.259-1.67 1.607-2 .349-.33 1.035-1.123 1.526-1.763 3.832-4.991 12.63-14.095 19.879-20.57 2.86-2.554 5.29-4.74 5.4-4.857.11-.117 1.277-1.022 2.593-2.011 1.316-.989 2.846-2.193 3.4-2.674 2.171-1.886 14.54-10.508 17.397-12.126a355.537 355.537 0 0 0 6.01-3.467c2.719-1.604 15.172-7.827 17.4-8.696.99-.386 2.43-.975 3.2-1.31 1.913-.83 2.764-1.164 4.4-1.726a51.7 51.7 0 0 0 2.4-.894c.55-.227 1.36-.559 1.8-.738 7.359-2.991 16.688-5.519 32.6-8.835 3.849-.802 11.762-1.776 17.8-2.191 1.98-.136 3.852-.381 4.159-.544.847-.448 25.271-.19 29.841.315m-26.8 11.698c-7.201.39-16.856 1.424-21.8 2.336-1.21.223-2.83.517-3.6.653-1.408.249-3.465.696-6.8 1.478-7.804 1.829-21.888 6.173-24.495 7.554-.382.202-.872.368-1.09.368-.217 0-1.574.54-3.015 1.2-1.441.66-2.71 1.2-2.82 1.2-.11 0-1.951.826-4.09 1.835-2.14 1.01-4.52 2.127-5.29 2.482-.77.356-2.219 1.124-3.221 1.708a326.217 326.217 0 0 1-3.6 2.061c-.978.551-2.454 1.386-3.279 1.857-.825.472-2.166 1.234-2.979 1.695C91.438 47.393 72.33 63.251 62.074 75a1074.57 1074.57 0 0 1-5.443 6.2C53.667 84.509 40.4 103.273 40.4 104.156c0 .089-.697 1.309-1.549 2.712-3.385 5.573-8.378 15.842-11.05 22.732a330.44 330.44 0 0 1-1.811 4.6c-2.453 5.828-6.812 21.019-7.978 27.8-.208 1.21-.576 3.28-.819 4.6-1.995 10.879-2.546 17.843-2.561 32.4-.013 13.294.153 16.324 1.398 25.4 2.146 15.652 6.976 33.556 12.571 46.6 3.104 7.236 5.465 11.958 10.6 21.2 11.691 21.042 32.005 43.114 54.399 59.105 4.298 3.069 5.921 4.132 11 7.206 5.207 3.15 17.239 9.365 21 10.846 1.925.758 3.092 1.255 6.098 2.597 3.023 1.351 14.829 5.165 20.502 6.624 10.967 2.822 17.247 3.933 31.2 5.521 8.649.985 31.774.482 40.8-.887 1.32-.201 3.84-.57 5.6-.822 4.043-.577 7.154-1.113 9.2-1.586l4.4-1.015c6.553-1.513 21.922-6.57 28.2-9.28l2.8-1.206c4.469-1.921 18.585-9.11 19.765-10.065.239-.194 1.065-.711 1.835-1.148 16.258-9.236 37.082-27.77 50.501-44.948 3.111-3.982 10.699-14.854 10.699-15.329 0-.148.518-1.022 1.152-1.943a54.683 54.683 0 0 0 2.058-3.272c.498-.879 1.43-2.498 2.07-3.598 2.209-3.792 9.52-19 9.52-19.801 0-.225.167-.722.37-1.104 7.666-14.377 13.719-48.71 13.063-74.095-.228-8.822-.392-11.028-1.458-19.6-5.379-43.265-28.747-86.542-62.175-115.148-2.2-1.882-4.09-3.531-4.2-3.664-1.405-1.693-16.776-12.375-23-15.983-.66-.383-2.28-1.331-3.6-2.108-2.813-1.654-13.222-6.959-15.81-8.056-.984-.418-2.6-1.111-3.59-1.54-.99-.429-2.205-.943-2.7-1.141l-1.8-.721c-5.627-2.257-16.984-5.732-24.7-7.557-6.381-1.51-7.357-1.691-15.6-2.898-10.831-1.586-25.344-2.203-37-1.573m22.265 16.193c.321.123 1.281 1.702 2.135 3.51 6.937 14.694 6.2 14.246 7.175 4.365.684-6.929.668-6.879 2.2-6.879 1.896 0 2.154.719 1.676 4.686a422.906 422.906 0 0 0-.832 7.714c-1.363 14.005-.973 12.995-4.838 12.516l-2.555-.316-1.096-2.2c-.602-1.21-2.466-5.08-4.14-8.6-3.624-7.616-3.561-7.637-4.415 1.477-.69 7.357-.954 8.326-2.266 8.317-2.21-.015-2.225-.152-1.137-10.794.214-2.09.581-5.87.816-8.4.609-6.556.35-6.156 3.797-5.865 1.594.135 3.159.345 3.48.469m-25.89 1.896c.152.935.437 3.5.633 5.7s.575 6.25.842 9 .5 5.72.518 6.6l.032 1.6-2.939.36c-3.486.427-3.515.402-3.849-3.347a582.66 582.66 0 0 0-.603-6.213c-1.685-16.362-1.84-15.384 2.44-15.394l2.649-.006.277 1.7m-24.655 1.98c1.311 1.311.582 2.635-1.82 3.304-4.631 1.29-4.611 1.257-3.294 5.45A154.467 154.467 0 0 1 157.652 47c.242.88.579 2.05.748 2.6.169.55.507 1.72.75 2.6.244.88.825 2.83 1.292 4.334.472 1.52.696 2.88.504 3.061-.535.505-4.059 1.605-5.143 1.605-1.073 0-.707.982-4.397-11.8-2.719-9.416-2.774-9.486-6.206-7.8-2.032.998-3.485.843-4.012-.429-.592-1.428-.362-1.698 2.012-2.364.77-.216 5-1.459 9.4-2.763 9.431-2.795 8.331-2.553 8.92-1.964m97.603 6.097c4.475 2.045 6.669 5.235 4.377 6.363l-1.3.64-1.541-1.602c-5.559-5.777-13.883-.448-13.863 8.873.015 6.862 6.15 9.54 8.019 3.5.945-3.053.906-3.238-.827-3.956-1.394-.577-1.551-2.162-.293-2.95.689-.431 5.436.945 8.444 2.447 1.306.652 1.369.213-.937 6.508-.926 2.53-1.776 4.999-1.887 5.487-.362 1.58-2.585 1.64-4.315.116-.523-.46-1.719-.773-3.455-.904-10.591-.796-15.374-14.443-7.739-22.079 3.935-3.935 9.953-4.895 15.317-2.443m-134.498 8.005c.354.541.534 1.16.4 1.378-.238.384-5.702 3.551-7.128 4.13-1.265.514-1.166 1.32.52 4.244 1.8 3.122 2.067 3.254 4.183 2.066 2.004-1.125 2.843-1.027 3.337.39.401 1.152.35 1.227-1.556 2.299-2.572 1.445-2.577 1.482-.658 4.838 2.025 3.545 2.12 3.537 9.277-.797 1.656-1.003 2.388-.914 2.969.361.576 1.266-.041 1.927-3.456 3.704-1.052.547-3.732 2.032-5.956 3.3-5.186 2.957-5.193 2.956-7.157-.588-.88-1.589-2.297-4.153-3.149-5.698a294.673 294.673 0 0 0-2.9-5.13c-.743-1.277-1.351-2.394-1.351-2.483 0-.088-.54-1.077-1.2-2.196-1.839-3.119-1.94-2.988 5.49-7.1 7.407-4.099 7.426-4.106 8.335-2.718M91.6 73.05c0 4.493.349 6.15 1.295 6.15.257 0 2.231.54 4.386 1.2 14.557 4.458 13.305 3.552 9.594 6.94-2.371 2.163-2.473 2.173-7.15.701-9.252-2.911-9.474-2.781-4.528 2.649 3.801 4.172 3.741 3.836 1.108 6.201-2.334 2.096-2.818 2.254-3.582 1.165-.562-.801-3.161-3.716-6.47-7.256-4.504-4.82-9.053-10.034-9.053-10.376 0-.437 4.137-4.024 4.643-4.025.196 0 1.628 1.381 3.182 3.07 3.795 4.126 3.922 4.003 3.563-3.439l-.283-5.879 1.281-1.078c1.828-1.538 2.014-1.171 2.014 3.977m218.235-2.575c2.688 2.478 2.741 2.686 1.407 5.598a1328.684 1328.684 0 0 0-4.116 9.099c-1.835 4.08-1.633 4.078 6.657-.06l7.405-3.696 2.206 2.178c2.809 2.775 3.452 1.558-6.04 11.43-9.06 9.422-8.87 9.307-11.271 6.861-2.312-2.356-2.231-2.604 2.417-7.391 5.011-5.162 4.679-5.423-2.2-1.73-6.148 3.301-6.441 3.344-8.475 1.261l-1.538-1.574 2.857-5.846c4.042-8.275 3.958-8.365-2.104-2.228-4.579 4.637-4.921 4.787-6.209 2.723-.538-.86-1.098-.209 10.845-12.6 6.249-6.483 5.756-6.24 8.159-4.025m-98.635-.863c10.825 1.317 11.091 1.357 16.2 2.412 4.511.931 10.34 2.51 14.2 3.845 19.939 6.896 35.141 16.462 50.41 31.724 4.53 4.527 5.338 5.402 9.434 10.208 11.966 14.043 22.82 37.676 26.36 57.399 3.49 19.449 2.814 38.137-2.067 57.081-2.584 10.032-7.845 22.926-12.778 31.319-2.557 4.352-5.768 9.249-7.974 12.163a629.133 629.133 0 0 0-3.185 4.236c-4.145 5.618-15.571 16.971-22.2 22.057-9.628 7.388-20.104 13.435-30.405 17.551-13.037 5.209-22.99 7.575-38.811 9.223-8.186.852-27.965-.254-35.384-1.979a273.856 273.856 0 0 0-7.365-1.613c-5.268-1.075-20.559-6.735-25.235-9.341-.99-.552-2.97-1.628-4.4-2.391-3.321-1.771-6.003-3.368-9.673-5.763-4.963-3.238-6.806-4.646-13.523-10.332-1.729-1.463-11.705-11.42-13.638-13.611C89.994 271.135 79.9 252.541 75.217 236c-.28-.99-.652-2.25-.825-2.8-1.43-4.534-2.896-12.853-3.987-22.627-1.384-12.398.253-31.133 3.931-44.973 3.476-13.083 9.184-26.048 15.994-36.328 4.507-6.804 5.972-8.802 10.458-14.268 1.263-1.539 13.424-13.707 15.012-15.02 15.52-12.841 36.198-23.481 52.4-26.962.66-.142 1.83-.408 2.6-.592 4.796-1.144 8.613-1.757 17.2-2.763 4.316-.505 19.205-.54 23.2-.055m-14.6 7.477c-7.078.196-16.462 1.269-22.4 2.56-4.387.955-15.545 4.26-18 5.333l-3 1.312c-.99.433-2.61 1.128-3.6 1.543-14.653 6.152-31.399 18.808-42.557 32.163-1.562 1.87-2.931 3.49-3.042 3.6-1.407 1.399-8.239 11.58-10.87 16.2-4.356 7.649-7.972 16.272-10.317 24.6-.279.99-.649 2.25-.822 2.8-.174.55-.5 1.81-.726 2.8-.225.99-.603 2.61-.84 3.6-3.358 14.064-3.376 36.195-.042 51 .824 3.661 1.31 5.657 1.608 6.6.173.55.54 1.81.815 2.8.654 2.355 1.947 6.363 2.419 7.5.206.495.554 1.35.774 1.9.22.55.566 1.405.769 1.9.203.495.695 1.71 1.094 2.7 10.587 26.292 37.995 53.37 64.537 63.761.99.388 2.34.949 3 1.248 1.309.593 6.88 2.496 8.8 3.006.66.176 2.46.7 4 1.165 16.11 4.869 45.262 5.267 60.4.826.66-.193 2.01-.557 3-.807 3.585-.906 8.528-2.526 12.2-3.998.44-.176 1.43-.547 2.2-.823.77-.277 4.1-1.813 7.4-3.413 5.161-2.503 7.633-3.878 13.868-7.709 22.995-14.13 43.337-42.466 50.867-70.856 6.439-24.274 4.627-56.004-4.33-75.8-.298-.66-.929-2.19-1.4-3.4-10.571-27.109-38.368-54.389-66.405-65.169-1.87-.719-3.76-1.453-4.2-1.63-6.678-2.695-17.85-5.463-26-6.44-4.339-.521-14.781-.995-19.2-.872M68.92 99.447c2.566 1.296 4.28 3.512 4.28 5.533 0 1.853 1.062 2.387 6.348 3.196 5.67.867 5.847 1.03 3.986 3.683a402.513 402.513 0 0 0-1.607 2.302c-.316.461-2.926.396-5.527-.138-3.798-.779-5.535-.831-6.182-.184-1.083 1.083-.697 1.62 2.982 4.139 4.098 2.807 4.116 2.857 2.143 5.828-1.849 2.786-.647 3.232-11.991-4.451-11.209-7.591-10.745-7.053-8.676-10.067l3.72-5.409c3.279-4.761 6.875-6.276 10.524-4.432m-8.004 6.653c-1.796 1.962-1.616 2.473 1.647 4.675 3.487 2.353 3.899 2.424 5.01.863 2.503-3.515-3.749-8.716-6.657-5.538m282.702 4.526c1.434 2.084 1.38 2.91-.314 4.818-.607.684-3.264 3.905-5.904 7.159-2.64 3.253-4.984 6.113-5.208 6.356-.225.243-1.101 1.296-1.948 2.341-1.935 2.386-2.19 2.373-3.74-.2-1.968-3.266-1.972-3.18.28-6.118 1.871-2.441 2.002-2.747 1.508-3.527-.297-.47-.964-1.575-1.482-2.455-1.795-3.049-1.642-2.983-5.078-2.184l-3.042.707-.96-1.036c-1.721-1.858-1.225-2.3 3.67-3.274 2.483-.494 4.572-.938 7.5-1.593.935-.21 2.6-.578 3.7-.818 1.1-.241 3.44-.771 5.2-1.179 4.462-1.033 4.411-1.042 5.818 1.003M333 114.089c-4.254 1.032-4.619 1.541-2.893 4.032 1.012 1.459 1.425 1.312 3.643-1.297 2.65-3.117 2.536-3.532-.75-2.735m-137.051 19.017c.639 1.193-.383 2.789-5.797 9.062a1741.767 1741.767 0 0 0-6.952 8.091c-.99 1.168-3.53 4.152-5.644 6.632-10.778 12.642-20.356 27.99-20.356 32.617 0 2.362-2.637 4.137-3.357 2.259-1.503-3.916 4.199-15.3 14.699-29.345 3.108-4.156 3.129-4.143-5.957-3.963-8.576.17-8.546.157-12.385 5.218-5.291 6.975-5.202 6.803-5.737 11.09-.967 7.749-3.564 12.013-7.406 12.162-5.109.197-4.188-5.739 2.228-14.365 1.89-2.541 1.951-3.993.315-7.564-2.665-5.819-1.389-7.505 6.217-8.214 6.024-.561 5.601-.272 12.25-8.394 10.531-12.866 11.001-13.396 11.986-13.512 2.186-.259 2.398 1.538.443 3.775-1.792 2.051-11 13.302-12.284 15.01-1.654 2.201-1.288 2.322 7.062 2.329 8.862.008 7.956.447 14.547-7.056 3.062-3.486 5.666-6.428 5.786-6.538.121-.11 2.077-2.405 4.348-5.1 4.137-4.91 5.21-5.661 5.994-4.194m-131.258 4.731c2.266.281 2.341.538 1.105 3.774L64.73 144.4h-3.351c-3.812 0-3.569-.2-5.18 4.243l-.928 2.559 1.438 1.299c3.781 3.415 3.713 3.317 3.244 4.661-.82 2.352-.027 2.799-10.231-5.762-3.933-3.3-8-6.703-9.037-7.563-2.199-1.823-2.153-1.608-.934-4.364l.95-2.149 11.15.152c6.132.083 11.91.246 12.84.361m293.826 2.963c3.592 10.268 3.427 14.477-.731 18.635-6.629 6.629-17.17 4.794-20.763-3.614-3.63-8.493-3.589-9.984.301-11.186 4.75-1.468 9.963-3.13 14.476-4.617 5.847-1.926 5.766-1.935 6.717.782m-311.311 3.5c.013.615 2.904 3.238 4.703 4.267.608.348 2.278-3.102 1.935-3.996-.234-.611-6.65-.873-6.638-.271m307.97 1.671c-.317.157-3.972 1.349-8.123 2.647-7.759 2.427-8.126 2.639-7.673 4.444 1.16 4.623 10.623 4.534 15.832-.149 2.942-2.645 2.912-8.413-.036-6.942m-103.736 1.935c2.946 1.967-.228 6.991-7.736 12.248-4.355 3.049-10.415 11.039-11.768 15.516-1.784 5.902 6.586 2.361 11.806-4.995 4.795-6.757 6.63-8.354 7.874-6.856.661.796.036 2.02-3.254 6.381-4.267 5.657-4.789 6.929-3.191 7.784 1.918 1.027 7.851-3.637 14.1-11.084 4.864-5.797 7.261-3.994 2.632 1.979-8.529 11.007-8.28 12.971.786 6.184 4.326-3.238 5.014-3.6 5.644-2.97.62.62-.104 1.768-1.606 2.545-.687.355-2.929 1.886-4.982 3.402-2.052 1.516-5.014 3.579-6.582 4.584-3.14 2.012-3.189 2.058-7.763 7.187-10.962 12.294-19.432 16.492-22.644 11.224-2.651-4.347 3.412-10.559 14.344-14.695a70.775 70.775 0 0 0 1.8-.714c.495-.205 2.07-.772 3.5-1.259 3.271-1.114 4.234-1.745 5.651-3.701 1.525-2.105 1.121-2.468-1.352-1.215-2.963 1.501-5.674 1.491-6.979-.026-1.093-1.271-.971-1.301-4.902 1.192-3.157 2.001-7.969 1.555-8.031-.744-.052-1.938-1.059-2.016-4.147-.321-5.079 2.788-9.84 1.828-9.84-1.983 0-1.613-.107-1.573-5.243 2.002a1337.319 1337.319 0 0 1-5.979 4.141c-.783.533-3.551 3.291-6.152 6.129-11.313 12.342-19.291 16.399-22.529 11.458-2.921-4.458 3.001-10.694 14.203-14.957.495-.188 1.305-.51 1.8-.716.495-.205 2.07-.772 3.5-1.259 3.271-1.114 4.234-1.745 5.651-3.701 1.525-2.105 1.121-2.468-1.352-1.215-3.531 1.79-7.899 1.059-7.899-1.321 0-.785-.584-.657-2.906.637-8.343 4.65-17.743 2.782-17.602-3.498.191-8.497 15.497-16.58 18.683-9.865 1.789 3.769-2.673 7.063-11.325 8.359-6.371.955-3.194 5.597 3.367 4.92 4.947-.51 9.383-3.572 13.922-9.608 4.613-6.133 6.122-7.178 6.774-4.688.221.847.066 1.106-3.716 6.213-3.873 5.23-4.305 6.315-2.957 7.433 1.51 1.253 8.063-3.852 14.155-11.027 2.825-3.328 3.75-3.901 4.725-2.926.832.832.561 1.391-2.849 5.896-5.422 7.162-6.72 10.304-3.586 8.683 2.365-1.223 7.576-5.393 9.915-7.935 5.773-6.273 11.702-9.024 16.057-7.449 1.628.589 2.19.152 4.99-3.875 4.307-6.193 5.118-7.269 6.733-8.932 2.287-2.356 4.942-3.442 6.26-2.562m-4.713 4.561c-2.898 2.944-4.289 4.904-3.817 5.376.624.625 6.789-5.065 7.328-6.764.639-2.012-.676-1.492-3.511 1.388m-103.808 7.021c-1.693.211-1.959 1.185-1.084 3.966.905 2.877 1.549 3.096 3.283 1.116 4.417-5.046 4.063-5.864-2.199-5.082m85.819 6.269c-6.865 2.452-12.577 10.565-8.211 11.66 2.622.659 10.042-5.092 11.79-9.136 1.124-2.602-.384-3.665-3.579-2.524M181 167.35c-4.259 1.966-6.118 4.562-2.9 4.05 5.154-.821 8.543-2.624 7.66-4.076-.636-1.045-2.462-1.035-4.76.026m-142.6 2.635c1.65.215 4.89.581 7.2.814 6.958.702 9.679 1.12 10.112 1.553.398.398-.177 5.447-.678 5.947-.191.191-7.231-.431-10.734-.948-2.871-.424-1.722.838 2.4 2.636 6.386 2.787 6.672 2.923 7.376 3.521.537.455.63.997.449 2.633-.274 2.471-.427 2.667-2.393 3.064-13.947 2.814-13.989 2.849-4.67 3.916l5.938.679.12 1.234c.232 2.373.441 2.357-12.72.966-1.87-.198-5.279-.547-7.575-.777-4.852-.486-4.836-.472-4.545-4.199.27-3.44-.04-3.139 4.32-4.192 1.98-.479 4.23-1.034 5-1.235.77-.201 2.557-.638 3.971-.972 2.337-.552 3.653-1.189 3.202-1.55-.191-.154-4.347-2.15-10.729-5.155l-4.157-1.957.233-2.782c.335-3.993.68-4.133 7.88-3.196m101.674 7.454c-2.42 3.735-3.331 6.231-2.468 6.765 1.116.689 3.534-3.334 4.15-6.904.303-1.76-.494-1.694-1.682.139m227.424 1.861c.218.275.511 2.3.65 4.5s.368 5.658.507 7.684l.254 3.683-1.043.476c-1.721.784-2.137.044-2.445-4.353-.394-5.621-.164-5.29-3.674-5.29-4.274 0-4.646.276-4.315 3.203.261 2.301.242 2.363-.782 2.62-1.767.444-2.184.006-2.479-2.602l-.274-2.421h-3.3c-4.444 0-4.449.008-3.877 5.719.434 4.325.421 4.505-.38 5.181-1.793 1.514-2.344.689-2.766-4.143-1.247-14.281-1.736-12.929 4.826-13.346 2.53-.16 7.3-.518 10.6-.794 8.171-.683 8.051-.681 8.498-.117M191.8 187.494c-3.921.984-13.699 7.243-14.739 9.433-2.729 5.753 4.184 4.773 10.877-1.541 6.44-6.077 7.814-8.885 3.862-7.892m50.002.001c-5.711 1.444-15.276 8.378-15.373 11.143-.182 5.222 9.785.099 16.342-8.4 2.238-2.902 2.027-3.501-.969-2.743m-89.392 5.71c.868.443 1.872 1.253 2.23 1.8.785 1.198 1.335 1.228 4.089.221 3.618-1.322 6.303-1.487 6.874-.421.68 1.27-.062 1.852-3.203 2.512-5.336 1.122-5.81 1.583-7.65 7.451-3.081 9.825-10.743 16.73-14.451 13.022-3.471-3.471-.195-9.774 8.77-16.88 3.273-2.593 3.574-3.01 3.088-4.277-.478-1.245-5.346-.849-8.683.706-14.342 6.685-29.907 32.309-24.858 40.924 3.068 5.236 12.393 4.143 21.184-2.485 3.141-2.367 3.344-2.623 11.606-14.578 9.099-13.167 12.506-16.088 15.394-13.2 2.512 2.512-.109 6.333-7.834 11.419-5.725 3.77-7.487 6.161-3.228 4.381 6.869-2.87 9.13 1.889 4.473 9.417-1.246 2.015-2.169 3.915-2.051 4.223.633 1.649 4.675-.518 7.762-4.161 4.049-4.778 5.99-6.529 9.278-8.369 3.518-1.968 6.987-2.287 10.145-.934 1.057.453 2.524.824 3.261.824 2.334 0 2.223 1.229-.361 4.021-4.138 4.47-6.011 8.135-4.601 9.006 2.521 1.558 8.736-3.028 14.202-10.477 3.208-4.373 4.135-5.053 5.367-3.938.548.496 1.117.612 2.071.425 4.306-.846 5.518-.785 6.69.338l1.125 1.078 2.438-1.027c8.129-3.421 9.966.585 4.041 8.808-6.381 8.857 1.342 6.063 8.344-3.018 4.074-5.284 5.863-6.959 6.861-6.425 1.269.679.983 1.815-1.138 4.518-3.444 4.388-6.045 8.407-6.045 9.342 0 3.444 5.325.515 12.2-6.711 4.575-4.808 4.443-4.608 3.627-5.51-1.848-2.042.649-3.792 3.795-2.661 2.307.83 6.956.708 12.778-.333 2.714-.485 3.806-.396 4.732.384.446.375-1.023 1.868-2.857 2.903-4.661 2.63-15.875 11.571-15.875 12.656 0 .765 1.84 1.421 3.986 1.421 4.48 0 11.067-4.482 13.616-9.265 1.687-3.164 3.341-4.735 4.986-4.735.699 0 2.306-.561 3.572-1.247 7.938-4.299 13.273 2.67 8.074 10.547-1.184 1.794.346 1.438 3.964-.924 1.705-1.113 3.348-1.929 3.651-1.813 2.666 1.023-4.295 5.982-9.03 6.433-1.397.133-2.692.56-3.6 1.187-5.742 3.964-10.584 3.624-12.847-.901l-1.029-2.056-2.171 1.636c-5.152 3.882-10.076 5.087-15.052 3.684-2.489-.701-3.188-.744-5.236-.322-2.162.446-3.848-1.9-2.404-3.344.848-.848-.087-.513-1.808.648-4.722 3.185-10.656 2.836-10.67-.628-.003-.685-.295-.631-1.594.295-8.321 5.924-11.565 1.301-5.38-7.666 2.586-3.749 2.995-4.692 2.072-4.773-3.288-.291-6.62 2.492-11.85 9.901-3.729 5.282-4.623 5.92-5.762 4.112-.506-.805-.133-1.503 3.812-7.12 1.705-2.427 3.1-4.746 3.1-5.151 0-1.988-2.574-2.259-5.222-.55-2.818 1.819-3.535 2.676-10.178 12.152-1.222 1.742-2.584 1.979-3.495.608l-.592-.892-1.889.971c-3.138 1.614-5.961 1.421-7.642-.522-1.514-1.751-1.849-1.737-4.982.211-3.435 2.136-7.29 1.628-8.601-1.134-.767-1.616-.559-1.604-2.401-.141-6.795 5.401-11.265 1.054-6.598-6.416 3.256-5.212 3.467-6.386 1.205-6.72-2.547-.376-9.704 5.715-13.799 11.743-2.881 4.242-4.545 5.197-5.134 2.947-.188-.719-.36-.679-2.537.583-12.13 7.037-20.589 4.93-22.567-5.62-3.114-16.616 25.969-48.476 38.442-42.113m-4.209 12.495c-5.693 5.701-8.237 10.7-5.444 10.7 2.292 0 7.45-5.883 9.643-11 1.763-4.112.088-3.993-4.199.3m13.706 6.803c-2.436 2.432-4.012 4.697-3.267 4.697.48 0 3.64-2.41 4.802-3.662 2.78-2.995 1.377-3.941-1.535-1.035M238.4 220c.648 1.21-.149 2.4-1.606 2.4-.925 0-1.233-.216-1.431-1.005-.488-1.944 2.106-3.135 3.037-1.395m36.805 5.522c-2.693.428-4.725 3.424-3.918 5.777 2.004 5.849 6.532 5.426 8.338-.778.92-3.16-1.163-5.516-4.42-4.999m-97.667 1.006c-7.33 3.473-11.178 11.527-5.224 10.937 4.343-.43 12.156-8.237 10.932-10.923-.566-1.244-3.098-1.25-5.708-.014m72.529-.56c-2.684.187-3.446.385-3.907 1.018-.936 1.282-4.577 5.432-7.118 8.114l-2.369 2.5h2.004c2.336 0 3.257-.579 9.523-5.987 2.2-1.899 4.585-3.861 5.3-4.36 1.427-.996 1.69-1.691.6-1.585-.385.037-2.2.172-4.033.3m16.791 5.763c-3.154 3.8-1.892 8.57 2.157 8.152 4.366-.45 5.098-1.844 2.231-4.244-1.074-.9-2.253-2.267-2.618-3.037-.719-1.515-1.086-1.696-1.77-.871M55.56 245.78c5.43 2.807 5.449 11.46.033 14.224-9.189 4.687-16.561-8.61-7.793-14.056 1.499-.931 6.093-1.031 7.76-.168m297.471.641c6.381 4.39 3.329 14.379-4.394 14.379-5.058 0-7.837-2.829-7.837-7.979 0-6.534 6.836-10.111 12.231-6.4M296.987 319c6.758 8.96 7.276 12.337 2.609 17.004-4.339 4.339-10.034 4.202-14.03-.338-2.49-2.827-8.766-11.154-8.766-11.629 0-.763 4.031-3.66 4.627-3.326.506.283 2.071 2.24 7.27 9.089 3.456 4.552 6.596 5.755 9.039 3.46 3.141-2.951 2.616-4.489-4.848-14.195-3.472-4.514-3.743-5.315-2.085-6.141 1.232-.615.865-.976 6.184 6.076m-187.416-5.3c.598.495 1.689 1.35 2.426 1.9 7.209 5.379 8.213 6.524 6.828 7.777-.899.814-.905.811-4.523-2.096-3.277-2.633-3.816-2.581-6.202.602-2.109 2.813-2.107 2.93.1 4.738 1.983 1.626 2.112 1.971 1.138 3.048-.877.969-.946.953-2.982-.665-2.333-1.855-2.269-1.877-5.156 1.796-2.877 3.66-3.04 3.712-5.433 1.752-2.554-2.093-2.715-1.749 5.735-12.206a321.22 321.22 0 0 0 3.689-4.7c2.398-3.113 2.771-3.279 4.38-1.946m30.151 18.897c8.411 2.897 10.624 14.261 3.95 20.29-6.695 6.049-16.959 3.19-19.566-5.45-2.792-9.255 6.417-18.007 15.616-14.84m124.478 2.352c11.701 5.508 8.228 23.051-4.563 23.051-12.853 0-16.905-17.114-5.437-22.96 2.769-1.412 7.11-1.451 10-.091m-128 1.241c-5.201 2.424-8.419 11.65-5.225 14.983 2.314 2.416 5.86.871 8.66-3.773 3.919-6.5 1.737-13.619-3.435-11.21m119.144 1.994c-3.072 2.152-1.87 10.063 2.138 14.072 3.809 3.808 7.713 2.237 7.717-3.106.004-6.664-6.177-13.542-9.855-10.966m-86.944 4.977c.99.201 2.832.552 4.093.78 7.688 1.391 10.131 7.77 4.864 12.703l-2.183 2.044 1.202 4.553c1.416 5.367 1.293 5.764-1.576 5.086-2.812-.665-3.6-1.056-3.6-1.79 0-.374-.168-1.233-.373-1.909-.46-1.514-1.113-4.065-1.412-5.516-.642-3.114-2.67-2.167-3.372 1.574-.834 4.44-1.193 5.315-2.174 5.304-1.394-.015-4.428-.801-4.682-1.211-.214-.346 3.625-20.392 4.184-21.847.254-.662.743-.639 5.029.229m63.828 1.539c-.143.825-.419 1.95-.613 2.5s-.701 2.17-1.127 3.6c-.426 1.43-1.075 3.597-1.442 4.815-.56 1.86-.597 2.661-.23 5 .24 1.532.535 3.616.656 4.631l.219 1.846-2.674.505c-3.279.619-3.212.685-4.019-3.988-.646-3.744-.707-3.874-4.889-10.359-4.566-7.082-4.692-7.642-1.733-7.654.563-.003 1.688-.115 2.499-.249l1.475-.244 2.619 4.049c3.285 5.079 3.24 5.078 4.639.048 1.472-5.296 1.906-6 3.699-6 1.146 0 1.174.046.921 1.5m-63.409 2.649c-1.046 2.752-1.357 6.361-.595 6.918 2.466 1.803 5.839-1.432 5.181-4.97-.428-2.3-3.892-3.771-4.586-1.948" fill="#1c1c1c"/></g></svg>